<svg width="60" height="60" viewBox="0 0 60 60" fill="none" xmlns="http://www.w3.org/2000/svg">
<rect width="60" height="60" rx="15" fill="url(#paint0_linear_693_3531)" fill-opacity="0.5"/>
<path opacity="0.4" d="M44.3666 24.0827C42.6166 16.3827 35.8999 12.916 29.9999 12.916C29.9999 12.916 29.9999 12.916 29.9832 12.916C24.0999 12.916 17.3666 16.366 15.6166 24.066C13.6666 32.666 18.9332 39.9493 23.6999 44.5327C25.4666 46.2327 27.7332 47.0827 29.9999 47.0827C32.2666 47.0827 34.5332 46.2327 36.2832 44.5327C41.0499 39.9493 46.3166 32.6827 44.3666 24.0827Z" fill="#707FEB"/>
<path d="M30 32.4336C32.8995 32.4336 35.25 30.0831 35.25 27.1836C35.25 24.2841 32.8995 21.9336 30 21.9336C27.1005 21.9336 24.75 24.2841 24.75 27.1836C24.75 30.0831 27.1005 32.4336 30 32.4336Z" fill="#707FEB"/>
<defs>
<linearGradient id="paint0_linear_693_3531" x1="30" y1="-92.25" x2="75.247" y2="59.7141" gradientUnits="userSpaceOnUse">
<stop stop-color="#151D27"/>
<stop offset="1" stop-color="white" stop-opacity="0"/>
</linearGradient>
</defs>
</svg>
