<svg width="60" height="60" viewBox="0 0 60 60" fill="none" xmlns="http://www.w3.org/2000/svg">
<rect width="60" height="60" rx="15" fill="url(#paint0_linear_693_3414)" fill-opacity="0.5"/>
<path d="M39.7999 20.2004L16.5499 43.4504C15.8332 44.1671 14.6332 44.1004 14.0499 43.2837C13.2166 42.1337 13.0499 40.5337 13.9166 39.1504L18.5166 31.7671C19.1333 30.7837 19.1333 29.1837 18.5166 28.2004L13.9166 20.8171C12.3666 18.3504 14.1499 15.1504 17.0499 15.1504H36.1332C37.2666 15.1504 38.6666 15.9337 39.2666 16.8837L40.0499 18.1171C40.4333 18.8004 40.3499 19.6504 39.7999 20.2004Z" fill="#707FEB"/>
<path opacity="0.4" d="M46.05 31.85L37.4166 43.35C36.8166 44.1667 35.4833 44.8333 34.4499 44.8333H22.5166C21.0333 44.8333 20.2833 43.0333 21.3333 41.9833L40.5166 22.8C41.2666 22.05 42.5499 22.1833 43.1166 23.1L46.1999 28.05C46.8833 29.1167 46.8166 30.8333 46.05 31.85Z" fill="#707FEB"/>
<defs>
<linearGradient id="paint0_linear_693_3414" x1="30" y1="-92.25" x2="75.247" y2="59.7141" gradientUnits="userSpaceOnUse">
<stop stop-color="#151D27"/>
<stop offset="1" stop-color="white" stop-opacity="0"/>
</linearGradient>
</defs>
</svg>
