<svg width="61" height="60" viewBox="0 0 61 60" fill="none" xmlns="http://www.w3.org/2000/svg">
<rect x="0.5" width="60" height="60" rx="15" fill="url(#paint0_linear_693_3428)" fill-opacity="0.5"/>
<path opacity="0.4" d="M45.9166 25.2501C42.0666 19.2001 36.4333 15.7168 30.4999 15.7168C27.5333 15.7168 24.6499 16.5835 22.0166 18.2001C19.3833 19.8335 17.0166 22.2168 15.0833 25.2501C13.4166 27.8668 13.4166 32.1168 15.0833 34.7335C18.9333 40.8001 24.5666 44.2668 30.4999 44.2668C33.4666 44.2668 36.3499 43.4001 38.9833 41.7835C41.6166 40.1501 43.9833 37.7668 45.9166 34.7335C47.5833 32.1335 47.5833 27.8668 45.9166 25.2501ZM30.4999 36.7335C26.7666 36.7335 23.7666 33.7168 23.7666 30.0001C23.7666 26.2835 26.7666 23.2668 30.4999 23.2668C34.2333 23.2668 37.2333 26.2835 37.2333 30.0001C37.2333 33.7168 34.2333 36.7335 30.4999 36.7335Z" fill="#707FEB"/>
<path d="M30.5 25.2334C27.8833 25.2334 25.75 27.3667 25.75 30.0001C25.75 32.6167 27.8833 34.7501 30.5 34.7501C33.1167 34.7501 35.2667 32.6167 35.2667 30.0001C35.2667 27.3834 33.1167 25.2334 30.5 25.2334Z" fill="#707FEB"/>
<defs>
<linearGradient id="paint0_linear_693_3428" x1="30.5" y1="-92.25" x2="75.747" y2="59.7141" gradientUnits="userSpaceOnUse">
<stop stop-color="#151D27"/>
<stop offset="1" stop-color="white" stop-opacity="0"/>
</linearGradient>
</defs>
</svg>
